<svg width="181" height="17" viewBox="0 0 181 17" fill="none" xmlns="http://www.w3.org/2000/svg">
<path d="M6.39062 9.40039C6.1582 9.98937 6.28298 10.718 6.90234 11.168L8.00781 11.9717L7.58594 13.2725C7.3502 13.998 7.67416 14.6591 8.20508 15H1V12.2002C1 10.6538 1.99377 9.40039 3.5 9.40039H6.39062Z" fill="#0A8800"/>
<path d="M8.9502 11.4287C8.98751 11.4662 9.01861 11.5086 9.04199 11.5547L9.07129 11.627C9.05535 11.5779 9.03148 11.5316 9.00098 11.4893L8.9502 11.4287Z" fill="#0A8800"/>
<path d="M6.36328 1C8.37159 1 10 2.67154 10 4.7334C9.99997 6.79523 8.37157 8.4668 6.36328 8.4668C4.35516 8.4666 2.72757 6.79511 2.72754 4.7334C2.72754 2.67166 4.35514 1.0002 6.36328 1Z" fill="#0A8800"/>
<path d="M10.5245 7.46352C10.6741 7.00287 11.3259 7.00287 11.4755 7.46353L12.0103 9.10942C12.0773 9.31544 12.2692 9.45492 12.4858 9.45492H14.2164C14.7008 9.45492 14.9022 10.0747 14.5103 10.3594L13.1102 11.3766C12.935 11.504 12.8617 11.7296 12.9286 11.9357L13.4634 13.5816C13.6131 14.0422 13.0858 14.4253 12.694 14.1406L11.2939 13.1234C11.1186 12.996 10.8814 12.996 10.7061 13.1234L9.30602 14.1406C8.91417 14.4253 8.38693 14.0422 8.5366 13.5816L9.07139 11.9357C9.13832 11.7296 9.06499 11.504 8.88975 11.3766L7.48967 10.3594C7.09781 10.0747 7.2992 9.45492 7.78356 9.45492H9.51416C9.73077 9.45492 9.92275 9.31544 9.98969 9.10942L10.5245 7.46352Z" fill="#0A8800"/>
<path d="M30.374 1.422H31.494V14.092H30.374V1.422ZM28.372 6.532H30.808V7.512H28.372V6.532ZM27.616 1.688H28.722V13.448H27.616V1.688ZM23.318 3.382H24.214V4.852C24.214 5.59867 24.1533 6.31267 24.032 6.994C23.9107 7.67533 23.724 8.30067 23.472 8.87C23.2293 9.43933 22.926 9.948 22.562 10.396C22.198 10.8347 21.7733 11.1987 21.288 11.488L20.56 10.592C21.176 10.256 21.6847 9.80333 22.086 9.234C22.4873 8.65533 22.7907 7.99267 22.996 7.246C23.2107 6.49933 23.318 5.70133 23.318 4.852V3.382ZM23.528 3.382H24.438V4.852C24.438 5.61733 24.5407 6.34533 24.746 7.036C24.9513 7.72667 25.2547 8.34267 25.656 8.884C26.0573 9.416 26.5567 9.836 27.154 10.144L26.468 11.04C25.824 10.676 25.2827 10.186 24.844 9.57C24.4053 8.954 24.074 8.24467 23.85 7.442C23.6353 6.63933 23.528 5.776 23.528 4.852V3.382ZM20.868 2.92H26.734V3.872H20.868V2.92ZM35.5669 2.248H43.4909V3.186H35.5669V2.248ZM34.1389 7.68H45.5769V8.646H34.1389V7.68ZM39.2489 8.324H40.4109V14.106H39.2489V8.324ZM42.9309 2.248H44.0789V3.354C44.0789 3.79267 44.0696 4.25467 44.0509 4.74C44.0416 5.22533 44.0042 5.762 43.9389 6.35C43.8736 6.92867 43.7616 7.57267 43.6029 8.282L42.4409 8.128C42.6929 7.11067 42.8376 6.21933 42.8749 5.454C42.9122 4.68867 42.9309 3.98867 42.9309 3.354V2.248ZM57.2238 1.422H58.3438V14.092H57.2238V1.422ZM55.2078 6.434H57.6438V7.4H55.2078V6.434ZM54.4098 1.688H55.5158V13.448H54.4098V1.688ZM48.0258 2.892H52.8558V10.69H48.0258V2.892ZM51.7638 3.816H49.1178V9.766H51.7638V3.816ZM66.7322 2.696H74.8802V3.648H66.7322V2.696ZM65.5142 11.348H76.9522V12.314H65.5142V11.348ZM69.9662 6.826H71.1142V11.838H69.9662V6.826ZM74.4322 2.696H75.5942V3.942C75.5942 4.46467 75.5849 5.01533 75.5662 5.594C75.5569 6.17267 75.5196 6.80733 75.4542 7.498C75.3982 8.18867 75.2909 8.95867 75.1322 9.808L73.9562 9.668C74.1989 8.45467 74.3389 7.39067 74.3762 6.476C74.4136 5.552 74.4322 4.70733 74.4322 3.942V2.696ZM88.5151 1.436H89.6211V8.884H88.5151V1.436ZM86.4991 4.6H88.8931V5.566H86.4991V4.6ZM85.7431 1.674H86.8491V8.814H85.7431V1.674ZM81.1231 9.486H89.6211V14.092H88.4731V10.438H81.1231V9.486ZM83.2931 2.36H84.4551C84.4551 3.368 84.2685 4.292 83.8951 5.132C83.5311 5.972 82.9898 6.71867 82.2711 7.372C81.5525 8.016 80.6565 8.56667 79.5831 9.024L79.0091 8.156C79.9518 7.77333 80.7405 7.31133 81.3751 6.77C82.0098 6.22867 82.4858 5.622 82.8031 4.95C83.1298 4.278 83.2931 3.54533 83.2931 2.752V2.36ZM79.5131 2.36H83.6991V3.312H79.5131V2.36ZM101.59 1.422H102.752V14.106H101.59V1.422ZM96.074 2.402C96.6994 2.402 97.25 2.584 97.726 2.948C98.2114 3.30267 98.5894 3.81133 98.86 4.474C99.14 5.13667 99.28 5.916 99.28 6.812C99.28 7.708 99.14 8.48733 98.86 9.15C98.5894 9.81267 98.2114 10.326 97.726 10.69C97.25 11.054 96.6994 11.236 96.074 11.236C95.4487 11.236 94.8934 11.054 94.408 10.69C93.9227 10.326 93.54 9.81267 93.26 9.15C92.9894 8.48733 92.854 7.708 92.854 6.812C92.854 5.916 92.9894 5.13667 93.26 4.474C93.54 3.81133 93.9227 3.30267 94.408 2.948C94.8934 2.584 95.4487 2.402 96.074 2.402ZM96.074 3.438C95.654 3.438 95.2854 3.578 94.968 3.858C94.66 4.12867 94.4174 4.52067 94.24 5.034C94.0627 5.538 93.974 6.13067 93.974 6.812C93.974 7.49333 94.0627 8.09067 94.24 8.604C94.4174 9.108 94.66 9.5 94.968 9.78C95.2854 10.06 95.654 10.2 96.074 10.2C96.4847 10.2 96.844 10.06 97.152 9.78C97.4694 9.5 97.7167 9.108 97.894 8.604C98.0714 8.09067 98.16 7.49333 98.16 6.812C98.16 6.13067 98.0714 5.538 97.894 5.034C97.7167 4.52067 97.4694 4.12867 97.152 3.858C96.844 3.578 96.4847 3.438 96.074 3.438ZM118.994 1.422H120.156V7.89H118.994V1.422ZM119.652 4.278H122.018V5.244H119.652V4.278ZM110.846 2.262H116.67V7.428H110.846V2.262ZM115.536 3.186H111.98V6.49H115.536V3.186ZM111.644 12.804H112.26C112.512 12.804 112.806 12.7947 113.142 12.776C113.478 12.748 113.833 12.706 114.206 12.65C114.58 12.5847 114.948 12.4913 115.312 12.37L115.494 13.294C115.093 13.4247 114.696 13.5227 114.304 13.588C113.922 13.6533 113.558 13.6953 113.212 13.714C112.867 13.742 112.55 13.756 112.26 13.756H111.644V12.804ZM111.644 9.038H112.778V13.056H111.644V9.038ZM115.046 9.178H121.388V10.046H115.046V9.178ZM118.224 10.508C118.915 10.508 119.475 10.6713 119.904 10.998C120.343 11.3153 120.562 11.7447 120.562 12.286C120.562 12.8367 120.343 13.2707 119.904 13.588C119.475 13.9053 118.915 14.064 118.224 14.064C117.534 14.064 116.969 13.9053 116.53 13.588C116.092 13.2707 115.872 12.8367 115.872 12.286C115.872 11.7447 116.092 11.3153 116.53 10.998C116.969 10.6713 117.534 10.508 118.224 10.508ZM118.224 11.334C117.842 11.334 117.524 11.4227 117.272 11.6C117.03 11.768 116.908 11.9967 116.908 12.286C116.908 12.5753 117.03 12.8087 117.272 12.986C117.524 13.1633 117.842 13.252 118.224 13.252C118.607 13.252 118.92 13.1633 119.162 12.986C119.405 12.8087 119.526 12.5753 119.526 12.286C119.526 11.9967 119.405 11.768 119.162 11.6C118.92 11.4227 118.607 11.334 118.224 11.334ZM117.664 8.058H118.798V9.794H117.664V8.058ZM123.767 8.086H135.205V9.024H123.767V8.086ZM125.237 12.86H133.931V13.812H125.237V12.86ZM125.237 10.144H126.399V13.14H125.237V10.144ZM129.479 1.856C130.385 1.856 131.169 1.95867 131.831 2.164C132.503 2.36 133.021 2.64933 133.385 3.032C133.749 3.40533 133.931 3.85333 133.931 4.376C133.931 4.89867 133.749 5.35133 133.385 5.734C133.021 6.11667 132.503 6.41067 131.831 6.616C131.169 6.812 130.385 6.91 129.479 6.91C128.574 6.91 127.785 6.812 127.113 6.616C126.451 6.41067 125.937 6.11667 125.573 5.734C125.209 5.35133 125.027 4.89867 125.027 4.376C125.027 3.85333 125.209 3.40533 125.573 3.032C125.937 2.64933 126.451 2.36 127.113 2.164C127.785 1.95867 128.574 1.856 129.479 1.856ZM129.479 2.794C128.826 2.794 128.252 2.85933 127.757 2.99C127.272 3.11133 126.894 3.29333 126.623 3.536C126.353 3.76933 126.217 4.04933 126.217 4.376C126.217 4.70267 126.353 4.98733 126.623 5.23C126.894 5.46333 127.272 5.64533 127.757 5.776C128.252 5.89733 128.826 5.958 129.479 5.958C130.151 5.958 130.73 5.89733 131.215 5.776C131.701 5.64533 132.074 5.46333 132.335 5.23C132.606 4.98733 132.741 4.70267 132.741 4.376C132.741 4.04933 132.606 3.76933 132.335 3.536C132.074 3.29333 131.701 3.11133 131.215 2.99C130.73 2.85933 130.151 2.794 129.479 2.794ZM146.772 2.29H147.794V3.27C147.794 3.82067 147.696 4.34333 147.5 4.838C147.313 5.33267 147.052 5.79467 146.716 6.224C146.389 6.644 146.006 7.022 145.568 7.358C145.138 7.694 144.676 7.97867 144.182 8.212C143.696 8.44533 143.202 8.62267 142.698 8.744L142.18 7.778C142.618 7.68467 143.057 7.54 143.496 7.344C143.944 7.148 144.364 6.91 144.756 6.63C145.148 6.34067 145.493 6.01867 145.792 5.664C146.1 5.30933 146.338 4.93133 146.506 4.53C146.683 4.11933 146.772 3.69933 146.772 3.27V2.29ZM146.996 2.29H147.99V3.27C147.99 3.69933 148.078 4.11933 148.256 4.53C148.433 4.93133 148.671 5.30933 148.97 5.664C149.278 6.01867 149.628 6.34067 150.02 6.63C150.412 6.91 150.827 7.15267 151.266 7.358C151.714 7.554 152.162 7.694 152.61 7.778L152.078 8.744C151.574 8.62267 151.079 8.44533 150.594 8.212C150.108 7.97867 149.646 7.694 149.208 7.358C148.778 7.022 148.396 6.644 148.06 6.224C147.724 5.79467 147.462 5.33267 147.276 4.838C147.089 4.34333 146.996 3.82067 146.996 3.27V2.29ZM141.704 11.418H153.184V12.384H141.704V11.418ZM156.613 8.002H165.307V8.94H156.613V8.002ZM155.143 11.558H166.623V12.51H155.143V11.558ZM160.281 8.478H161.443V11.992H160.281V8.478ZM156.613 2.458H165.181V3.41H157.789V8.352H156.613V2.458ZM157.425 5.174H164.901V6.112H157.425V5.174ZM171.956 2.402C172.572 2.402 173.118 2.584 173.594 2.948C174.07 3.30267 174.438 3.81133 174.7 4.474C174.97 5.13667 175.106 5.916 175.106 6.812C175.106 7.708 174.97 8.48733 174.7 9.15C174.438 9.81267 174.07 10.326 173.594 10.69C173.118 11.054 172.572 11.236 171.956 11.236C171.349 11.236 170.803 11.054 170.318 10.69C169.842 10.326 169.468 9.81267 169.198 9.15C168.936 8.48733 168.806 7.708 168.806 6.812C168.806 5.916 168.936 5.13667 169.198 4.474C169.468 3.81133 169.842 3.30267 170.318 2.948C170.803 2.584 171.349 2.402 171.956 2.402ZM171.956 3.438C171.554 3.438 171.2 3.578 170.892 3.858C170.584 4.12867 170.341 4.52067 170.164 5.034C169.996 5.538 169.912 6.13067 169.912 6.812C169.912 7.49333 169.996 8.09067 170.164 8.604C170.341 9.108 170.584 9.5 170.892 9.78C171.2 10.06 171.554 10.2 171.956 10.2C172.366 10.2 172.726 10.06 173.034 9.78C173.342 9.5 173.58 9.108 173.748 8.604C173.925 8.09067 174.014 7.49333 174.014 6.812C174.014 6.13067 173.925 5.538 173.748 5.034C173.58 4.52067 173.342 4.12867 173.034 3.858C172.726 3.578 172.366 3.438 171.956 3.438ZM177.85 1.422H178.998V14.106H177.85V1.422ZM174.728 6.252H178.368V7.19H174.728V6.252Z" fill="#222222"/>
</svg>
