<svg width="32" height="33" viewBox="0 0 32 33" fill="none" xmlns="http://www.w3.org/2000/svg">
<path d="M22.9771 21.1557L23.0016 11.6777C23.0039 11.4474 23.0762 11.2241 23.2096 11.0357C23.3429 10.8473 23.5314 10.7024 23.7511 10.6193C23.97 10.5344 24.2108 10.5147 24.4432 10.5628C24.6756 10.6108 24.8893 10.7244 25.0571 10.8893L26.8937 12.7098C27.0058 12.8196 27.0948 12.9494 27.1555 13.0919C27.2163 13.2345 27.2478 13.3868 27.248 13.5402L27.1517 21.2284M22.9876 17.035L27.23 17.1088M8.00159 22.821V26.7073H21.8643M8.00159 22.821H4V11.7174C4 10.0518 5.14331 8.10868 6.85828 6.72073C8.57325 5.33277 12.0032 4.5 12.0032 4.5M8.00159 22.821V11.7174M12.0032 4.5H18.8631M12.0032 4.5C12.0032 6.33971 13.5388 7.83109 15.4331 7.83109C17.3274 7.83109 18.8631 6.33971 18.8631 4.5M18.8631 4.5C18.8631 4.5 22.293 5.88796 24.008 7.27591C25.7229 8.66387 26.8662 11.0234 26.8662 12.6889M22.0446 27.2552C22.0448 27.5632 22.1704 27.8604 22.394 28.0821C22.6176 28.3037 22.921 28.4317 23.238 28.4381L26.7847 28.4999C27.1018 28.5045 27.4058 28.387 27.6306 28.1732C27.8553 27.9594 27.9824 27.6665 27.9841 27.3586L28 21.2432L22.0605 21.1398L22.0446 27.2552Z" stroke="currentColor" stroke-linecap="round" stroke-linejoin="round"/>
</svg>
