<svg width="26" height="25" viewBox="0 0 26 25" fill="none" xmlns="http://www.w3.org/2000/svg">
<path d="M22.5108 11.3661C23.8272 9.69065 24.0665 7.41689 23.3485 5.50215L24.3059 4.54478C24.7502 4.10043 24.9998 3.49777 24.9998 2.86938C24.9998 2.24098 24.7502 1.63832 24.3059 1.19397C23.8615 0.74963 23.2589 0.5 22.6305 0.5C22.0021 0.5 21.3994 0.74963 20.9551 1.19397L19.9977 2.15135C19.0254 1.80634 17.9839 1.70232 16.9626 1.84823C15.9413 1.99413 14.9706 2.3856 14.1338 2.98905" stroke="currentColor" stroke-linecap="round" stroke-linejoin="round"/>
<path d="M12.0996 2.63018C12.3233 2.41091 12.6241 2.28809 12.9373 2.28809C13.2506 2.28809 13.5513 2.41091 13.775 2.63018L22.87 11.7252C23.0893 11.9489 23.2121 12.2497 23.2121 12.5629C23.2121 12.8762 23.0893 13.1769 22.87 13.4006L20.9553 15.3154C20.7316 15.5346 20.4308 15.6574 20.1176 15.6574C19.8044 15.6574 19.5036 15.5346 19.2799 15.3154L10.1849 6.22032C9.96559 5.99662 9.84277 5.69586 9.84277 5.38262C9.84277 5.06938 9.96559 4.76862 10.1849 4.54492L12.0996 2.63018Z" stroke="currentColor" stroke-linecap="round" stroke-linejoin="round"/>
<path d="M10.5438 6.5791L1.80778 15.3151C0.730739 16.3922 0.730739 18.3069 1.80778 19.384L6.11596 23.6921C7.193 24.7692 9.10774 24.7692 10.1848 23.6921L18.9208 14.9561M3.36351 13.7594L5.75694 16.1528M6.95366 10.1692L9.34709 12.5627" stroke="currentColor" stroke-linecap="round" stroke-linejoin="round"/>
</svg>
