<svg width="32" height="33" viewBox="0 0 32 33" fill="none" xmlns="http://www.w3.org/2000/svg">
<path d="M28 15.3892C28.0018 15.133 27.9501 14.8792 27.8484 14.644C27.7467 14.4088 27.5971 14.1973 27.4092 14.0231L21.7046 8.76153L16 3.5L4.59081 14.0231C4.40292 14.1973 4.25336 14.4088 4.15165 14.644C4.04994 14.8792 3.99831 15.133 4.00004 15.3892V25.6538C4.00004 26.1434 4.19455 26.6131 4.54077 26.9592C4.88699 27.3054 5.35657 27.5 5.84619 27.5H26.1538C26.6434 27.5 27.1131 27.3054 27.4592 26.9592C27.8056 26.6131 28 26.1434 28 25.6538V15.3892Z" stroke="currentColor" stroke-linecap="round" stroke-linejoin="round"/>
<path d="M21.5713 21.5H16.4287C16.1919 21.5 16 21.6919 16 21.9287V27.0713C16 27.3081 16.1919 27.5 16.4287 27.5H21.5713C21.8081 27.5 22 27.3081 22 27.0713V21.9287C22 21.6919 21.8081 21.5 21.5713 21.5Z" stroke="currentColor" stroke-linecap="round" stroke-linejoin="round"/>
<path d="M18.5713 15.5H13.4287C13.1919 15.5 13 15.6919 13 15.9287V21.0713C13 21.3081 13.1919 21.5 13.4287 21.5H18.5713C18.8081 21.5 19 21.3081 19 21.0713V15.9287C19 15.6919 18.8081 15.5 18.5713 15.5Z" stroke="currentColor" stroke-linecap="round" stroke-linejoin="round"/>
<path d="M15.5713 21.5H10.4287C10.1919 21.5 10 21.6919 10 21.9287V27.0713C10 27.3081 10.1919 27.5 10.4287 27.5H15.5713C15.8081 27.5 16 27.3081 16 27.0713V21.9287C16 21.6919 15.8081 21.5 15.5713 21.5Z" stroke="currentColor" stroke-linecap="round" stroke-linejoin="round"/>
</svg>
