<svg width="32" height="33" viewBox="0 0 32 33" fill="none" xmlns="http://www.w3.org/2000/svg">
<path d="M23.2004 15.5769C25.8514 15.5769 28.0004 13.0973 28.0004 10.0385C28.0004 6.97966 25.8514 4.5 23.2004 4.5C20.5494 4.5 18.4004 6.97966 18.4004 10.0385C18.4004 13.0973 20.5494 15.5769 23.2004 15.5769Z" stroke="currentColor" stroke-linecap="round" stroke-linejoin="round"/>
<path d="M23.2002 15.5771V28.5002" stroke="currentColor" stroke-linecap="round" stroke-linejoin="round"/>
<path d="M9 4.5V28.5" stroke="currentColor" stroke-linecap="round" stroke-linejoin="round"/>
<path d="M14 4.5V9.11539C14 9.72148 13.8707 10.3216 13.6194 10.8816C13.3681 11.4416 12.9998 11.9504 12.5355 12.379C12.0712 12.8075 11.52 13.1475 10.9134 13.3795C10.3068 13.6114 9.6566 13.7308 9 13.7308C7.67392 13.7308 6.40214 13.2445 5.46446 12.379C4.52678 11.5134 4 10.3395 4 9.11539V4.5" stroke="currentColor" stroke-linecap="round" stroke-linejoin="round"/>
</svg>
