<svg width="32" height="33" viewBox="0 0 32 33" fill="none" xmlns="http://www.w3.org/2000/svg">
<path d="M25.3333 15.1665H6.66667M25.3333 15.1665C26.8061 15.1665 28 16.3604 28 17.8332V21.8332C28 23.3059 26.8061 24.4998 25.3333 24.4998H6.66667C5.19391 24.4998 4 23.3059 4 21.8332V17.8332C4 16.3604 5.19391 15.1665 6.66667 15.1665M25.3333 15.1665L24.7167 8.38976C24.6594 7.69843 24.0816 7.1665 23.3879 7.1665H8.61206C7.91836 7.1665 7.34055 7.69843 7.28328 8.38976L6.66667 15.1665M5.33333 24.1431V25.8332C5.33333 26.5696 5.93029 27.1665 6.66667 27.1665H8C8.73638 27.1665 9.33333 26.5696 9.33333 25.8332V24.4998M22.6667 24.4998V25.8332C22.6667 26.5696 23.2636 27.1665 24 27.1665H25.3333C26.0697 27.1665 26.6667 26.5696 26.6667 25.8332V24.1431M25.3333 20.4998C25.3333 21.2362 24.7364 21.8332 24 21.8332C23.2636 21.8332 22.6667 21.2362 22.6667 20.4998C22.6667 19.7635 23.2636 19.1665 24 19.1665C24.7364 19.1665 25.3333 19.7635 25.3333 20.4998ZM9.33333 20.4998C9.33333 21.2362 8.73638 21.8332 8 21.8332C7.26362 21.8332 6.66667 21.2362 6.66667 20.4998C6.66667 19.7635 7.26362 19.1665 8 19.1665C8.73638 19.1665 9.33333 19.7635 9.33333 20.4998Z" stroke="currentColor"/>
</svg>
