<svg width="32" height="33" viewBox="0 0 32 33" fill="none" xmlns="http://www.w3.org/2000/svg">
<path d="M6.29425 19.1871L15.2097 27.7417C15.5478 28.0661 15.7168 28.2283 15.9204 28.2545C15.9732 28.2613 16.0268 28.2613 16.0796 28.2545C16.2832 28.2283 16.4522 28.0661 16.7903 27.7417L25.7058 19.1871C28.1533 16.8386 28.4519 13.0286 26.4002 10.3275L25.9341 9.71383C23.4441 6.43576 18.3623 6.97773 16.6197 10.7072C16.3739 11.2331 15.6261 11.2331 15.3803 10.7072C13.6377 6.97773 8.55591 6.43575 6.06594 9.71382L5.59981 10.3275C3.54808 13.0286 3.84672 16.8386 6.29425 19.1871Z" stroke="currentColor"/>
</svg>
